name ./resultDataOpenSim/trcMotMarkerGrf/sub06/grf-13-02.mot
datacolumns 19
datarows 12
range 0.53600000 0.58000000
endheader

                time	     ground_force_vx	     ground_force_vy	     ground_force_vz	     ground_force_px	     ground_force_py	     ground_force_pz	   l_ground_force_vx	   l_ground_force_vy	   l_ground_force_vz	   l_ground_force_px	   l_ground_force_py	   l_ground_force_pz	     ground_torque_x	     ground_torque_y	     ground_torque_z	   l_ground_torque_x	   l_ground_torque_y	   l_ground_torque_z	
          0.53600000	         89.18578497	        635.13516393	        -47.55386573	         -0.77656227	          0.00000000	          0.05749352	          0.00000000	          0.00000000	          0.00000000	          0.00000000	          0.00000000	          0.00000000	          0.00000000	          0.26607413	          0.00000000	          0.00000000	          0.00000000	          0.00000000	
          0.54000000	         97.20484194	        658.51856043	        -46.95424045	         -0.77625854	          0.00000000	          0.05713956	          0.00000000	          0.00000000	          0.00000000	          0.00000000	          0.00000000	          0.00000000	          0.00000000	          0.43347569	          0.00000000	          0.00000000	          0.00000000	          0.00000000	
          0.54400000	        105.48135227	        680.96315101	        -45.66554796	         -0.77595538	          0.00000000	          0.05676619	          0.00000000	          0.00000000	          0.00000000	          0.00000000	          0.00000000	          0.00000000	          0.00000000	          0.66560708	          0.00000000	          0.00000000	          0.00000000	          0.00000000	
          0.54800000	        113.73087212	        702.27257561	        -43.90577101	         -0.77555486	          0.00000000	          0.05641128	          0.00000000	          0.00000000	          0.00000000	          0.00000000	          0.00000000	          0.00000000	          0.00000000	          0.94771650	          0.00000000	          0.00000000	          0.00000000	          0.00000000	
          0.55200000	        121.77514006	        722.45122333	        -41.95872777	         -0.77504591	          0.00000000	          0.05608443	          0.00000000	          0.00000000	          0.00000000	          0.00000000	          0.00000000	          0.00000000	          0.00000000	          1.25725309	          0.00000000	          0.00000000	          0.00000000	          0.00000000	
          0.55600000	        129.58562206	        741.61411949	        -40.11340460	         -0.77451079	          0.00000000	          0.05577349	          0.00000000	          0.00000000	          0.00000000	          0.00000000	          0.00000000	          0.00000000	          0.00000000	          1.56701375	          0.00000000	          0.00000000	          0.00000000	          0.00000000	
          0.56000000	        137.23765924	        759.75045782	        -38.62094818	         -0.77402650	          0.00000000	          0.05547230	          0.00000000	          0.00000000	          0.00000000	          0.00000000	          0.00000000	          0.00000000	          0.00000000	          1.84914849	          0.00000000	          0.00000000	          0.00000000	          0.00000000	
          0.56400000	        144.83107144	        776.58683966	        -37.66953732	         -0.77357812	          0.00000000	          0.05519804	          0.00000000	          0.00000000	          0.00000000	          0.00000000	          0.00000000	          0.00000000	          0.00000000	          2.07942191	          0.00000000	          0.00000000	          0.00000000	          0.00000000	
          0.56800000	        152.45965709	        791.69309848	        -37.35769212	         -0.77308197	          0.00000000	          0.05498097	          0.00000000	          0.00000000	          0.00000000	          0.00000000	          0.00000000	          0.00000000	          0.00000000	          2.24098719	          0.00000000	          0.00000000	          0.00000000	          0.00000000	
          0.57200000	        160.21685337	        804.74084078	        -37.67448753	         -0.77249057	          0.00000000	          0.05483921	          0.00000000	          0.00000000	          0.00000000	          0.00000000	          0.00000000	          0.00000000	          0.00000000	          2.32680549	          0.00000000	          0.00000000	          0.00000000	          0.00000000	
          0.57600000	        168.18496476	        815.65673379	        -38.50418784	         -0.77185024	          0.00000000	          0.05476086	          0.00000000	          0.00000000	          0.00000000	          0.00000000	          0.00000000	          0.00000000	          0.00000000	          2.34004902	          0.00000000	          0.00000000	          0.00000000	          0.00000000	
          0.58000000	        176.39485411	        824.50007854	        -39.66487307	         -0.77124873	          0.00000000	          0.05471536	          0.00000000	          0.00000000	          0.00000000	          0.00000000	          0.00000000	          0.00000000	          0.00000000	          2.29240702	          0.00000000	          0.00000000	          0.00000000	          0.00000000	
